Coordinates
version=1
nRows=6
nColumns=63
inDegrees=yes

Units are S.I. units (second, meters, Newtons, ...)
If the header above contains a line with 'inDegrees', this indicates whether rotational values are in degrees (yes) or radians (no).

endheader
time	pelvis_tilt	pelvis_list	pelvis_rotation	pelvis_tx	pelvis_ty	pelvis_tz	hip_flexion_r	hip_adduction_r	hip_rotation_r	knee_angle_r	knee_angle_r_beta	ankle_angle_r	subtalar_angle_r	mtp_angle_r	hip_flexion_l	hip_adduction_l	hip_rotation_l	knee_angle_l	knee_angle_l_beta	ankle_angle_l	subtalar_angle_l	mtp_angle_l	L5_S1_Flex_Ext	L5_S1_Lat_Bending	L5_S1_axial_rotation	L4_L5_Flex_Ext	L4_L5_Lat_Bending	L4_L5_axial_rotation	L3_L4_Flex_Ext	L3_L4_Lat_Bending	L3_L4_axial_rotation	L2_L3_Flex_Ext	L2_L3_Lat_Bending	L2_L3_axial_rotation	L1_L2_Flex_Ext	L1_L2_Lat_Bending	L1_L2_axial_rotation	L1_T12_Flex_Ext	L1_T12_Lat_Bending	L1_T12_axial_rotation	Abs_r3	Abs_r2	Abs_r1	Abs_t1	Abs_t2	neck_flexion	neck_bending	neck_rotation	arm_flex_r	arm_add_r	arm_rot_r	elbow_flex_r	pro_sup_r	wrist_flex_r	wrist_dev_r	arm_flex_l	arm_add_l	arm_rot_l	elbow_flex_l	pro_sup_l	wrist_flex_l	wrist_dev_l
      3.81666667	    128.56905417	     39.18393647	   -170.12177162	      0.07598684	      2.95646524	      0.03286837	     46.16159736	     -9.16780513	     -5.49413937	     11.60921377	      0.20261900	     23.47555971	      7.49201239	      0.00000000	     58.20975857	    -16.08862248	    -20.72561733	     39.86535874	      0.69578177	     44.70640597	     14.59462656	      0.00000000	     -0.02045370	      1.58305529	     -2.13097157	     -0.03798456	      2.10546353	     -2.26415730	     -0.03360338	      3.84904063	     -2.26415730	     -0.02337653	      3.84904063	     -1.86460013	     -0.01899330	      3.22816634	     -1.73141440	     -0.01168724	      2.45215264	     -1.59822868	     -0.14609871	     17.90783802	    -11.85182460	      0.00000000	      0.00000000	      0.26117633	    -15.67153290	     36.43192872	     58.04629658	     12.43418209	    155.18731274	      0.30767203	     89.99559364	      0.00000000	      0.00000000	     64.68349410	     19.36348719	    179.25541701	      0.64960234	     89.99559364	      0.00000000	      0.00000000
      3.83333333	    127.18292979	     40.74479568	   -167.61857376	      0.07664787	      2.95832874	      0.03629241	     45.31218300	     -8.96014993	     -6.28283284	     12.74176545	      0.22238576	     23.61565741	      5.28886681	      0.00000000	     58.50789808	    -15.17670007	    -16.61769017	     39.86843008	      0.69583537	     44.29586658	     12.35229732	      0.00000000	     -0.02336136	      1.75756668	     -1.46867336	     -0.04338438	      2.33756368	     -1.56046545	     -0.03838038	      4.27334763	     -1.56046545	     -0.02669970	      4.27334763	     -1.28508919	     -0.02169336	      3.58402997	     -1.19329711	     -0.01334868	      2.72247079	     -1.10150502	     -0.16686785	     19.88194580	     -8.16832063	      0.00000000	      0.00000000	     -1.36161497	    -14.07302548	     31.53145124	     60.93363919	     11.94188222	    157.87125666	      0.31589424	     89.99559364	      0.00000000	      0.00000000	     62.26472384	     19.10392072	    177.00879216	      0.59834364	     89.99559364	      0.00000000	      0.00000000
      3.85000000	    125.29640209	     41.33688013	   -164.70915403	      0.07571851	      2.95858477	      0.04003693	     44.44121074	     -9.23991634	     -5.40518580	     14.78827635	      0.25810411	     23.77398811	      1.42824459	      0.00000000	     57.42673303	    -14.28292769	    -15.24540163	     39.16155341	      0.68349805	     43.99516388	     12.45073831	      0.00000000	     -0.02780652	      1.79707831	     -0.65692809	     -0.05163949	      2.39011415	     -0.69798610	     -0.04568334	      4.36941619	     -0.69798610	     -0.03178007	      4.36941619	     -0.57481208	     -0.02582114	      3.66460208	     -0.53375407	     -0.01588865	      2.78367430	     -0.49269607	     -0.19861921	     20.32890922	     -3.65363696	      0.00000000	      0.00000000	     -5.20542863	    -11.35722421	     21.98419034	     62.49438482	     10.54722314	    163.08030852	      0.27906717	     89.99559364	      0.00000000	      0.00000000	     59.01762038	     18.63086939	    165.68542808	      0.42610986	     89.99559364	      0.00000000	      0.00000000
      3.86666667	    122.86249435	     41.45013404	   -160.72831308	      0.07382197	      2.95809202	      0.04513371	     43.00571290	    -10.06101623	     -4.71126944	     17.08776618	      0.29823778	     23.99412932	     -2.90173976	      0.00000000	     55.58427173	    -12.89799085	    -14.41927001	     37.98845157	      0.66302356	     43.47163373	     13.54870359	      0.00000000	     -0.03405958	      1.79599764	      0.13371658	     -0.06325204	      2.38867686	      0.14207387	     -0.05595648	      4.36678866	      0.14207387	     -0.03892669	      4.36678866	      0.11700201	     -0.03162772	      3.66239838	      0.10864472	     -0.01946164	      2.78200034	      0.10028744	     -0.24328414	     20.31668448	      0.74369152	      0.00000000	      0.00000000	     -7.77909289	     -9.72344086	     13.76476921	     63.08556567	      8.32565862	    162.80700937	      0.22489035	     89.99559364	      0.00000000	      0.00000000	     55.43747271	     17.82089712	    154.42738884	      0.26602625	     89.99559364	      0.00000000	      0.00000000
      3.88333333	    120.03422954	     40.97925245	   -155.95669998	      0.07096826	      2.95695443	      0.05134717	     40.88616512	    -11.52919134	     -5.51626106	     19.41565785	      0.33886716	     24.77345987	     -5.45968907	      0.00000000	     52.96222045	    -11.04084667	    -13.90578639	     36.25009386	      0.63268349	     42.78640016	     14.97912542	      0.00000000	     -0.03900805	      1.74926298	      0.91782948	     -0.07244184	      2.32651976	      0.97519382	     -0.06408632	      4.25315801	      0.97519382	     -0.04458230	      4.25315801	      0.80310079	     -0.03622287	      3.56709707	      0.74573645	     -0.02228920	      2.70960836	      0.68837211	     -0.27863057	     19.78801268	      5.10469219	      0.00000000	      0.00000000	    -12.33385218	     -5.41506985	      4.16797373	     62.91193413	      5.50421869	    158.86360103	      0.17548285	     89.99559364	      0.00000000	      0.00000000	     52.21385976	     16.77021554	    154.07616815	      0.17065391	     89.99559364	      0.00000000	      0.00000000
      3.90000000	    117.09121754	     39.89664273	   -150.78183734	      0.06738309	      2.95554376	      0.05819210	     38.21156381	    -13.41382954	     -6.67156039	     21.72934690	      0.37924865	     25.86680070	     -7.75266372	      0.00000000	     49.73046908	     -8.83260823	    -13.61580226	     34.12469146	      0.59558822	     41.91708874	     16.63600374	      0.00000000	     -0.04496254	      1.65635649	      1.67712531	     -0.08349993	      2.20295413	      1.78194564	     -0.07386896	      4.02726517	      1.78194564	     -0.05138769	      4.02726517	      1.46748465	     -0.04175222	      3.37764216	      1.36266431	     -0.02569160	      2.56569620	      1.25784398	     -0.32116293	     18.73703590	      9.32766784	      0.00000000	      0.00000000	    -15.47780744	     -0.98275569	     -6.30424285	     62.18285390	      2.47750682	    151.38560102	      0.14293247	     89.99559364	      0.00000000	      0.00000000	     49.80559959	     15.33779357	    158.56643725	      0.12259812	     89.99559364	      0.00000000	      0.00000000
